<mxfile host="www.draw.io" modified="2020-02-16T21:27:08.209Z" agent="Mozilla/5.0 (Macintosh; Intel Mac OS X 10_12_6) AppleWebKit/537.36 (KHTML, like Gecko) Chrome/80.0.3987.106 Safari/537.36" etag="ZFEZ9ztsDjER-hi48IGy" version="12.7.0" type="github">
  <diagram name="Page-1" id="9f46799a-70d6-7492-0946-bef42562c5a5">
    <mxGraphModel dx="1886" dy="1337" grid="1" gridSize="10" guides="1" tooltips="1" connect="1" arrows="1" fold="1" page="1" pageScale="1" pageWidth="1100" pageHeight="850" background="#ffffff" math="0" shadow="0">
      <root>
        <mxCell id="0"/>
        <mxCell id="1" parent="0"/>
        <mxCell id="YVDnFWVNbik-R5A3QLN_-94" value="" style="rounded=0;whiteSpace=wrap;html=1;fillColor=#FF6666;" parent="1" vertex="1">
          <mxGeometry x="-380" y="-160" width="1180" height="340" as="geometry"/>
        </mxCell>
        <mxCell id="YVDnFWVNbik-R5A3QLN_-89" value="" style="rounded=0;whiteSpace=wrap;html=1;fillColor=#66B2FF;strokeColor=#6c8ebf;" parent="1" vertex="1">
          <mxGeometry x="710" y="-147" width="460" height="300" as="geometry"/>
        </mxCell>
        <mxCell id="YVDnFWVNbik-R5A3QLN_-118" value="" style="rounded=0;whiteSpace=wrap;html=1;fillColor=#FFFF00;" parent="1" vertex="1">
          <mxGeometry x="600" y="-210" width="280" height="130" as="geometry"/>
        </mxCell>
        <mxCell id="YVDnFWVNbik-R5A3QLN_-31" value="" style="rounded=0;whiteSpace=wrap;html=1;fillColor=#54FF65;" parent="1" vertex="1">
          <mxGeometry x="30" y="140" width="850" height="350" as="geometry"/>
        </mxCell>
        <mxCell id="78961159f06e98e8-17" value="DatabaseQuery" style="swimlane;html=1;fontStyle=1;align=center;verticalAlign=top;childLayout=stackLayout;horizontal=1;startSize=30;horizontalStack=0;resizeParent=1;resizeLast=0;collapsible=1;marginBottom=0;swimlaneFillColor=#ffffff;rounded=0;shadow=0;comic=0;labelBackgroundColor=none;strokeWidth=1;fillColor=none;fontFamily=Verdana;fontSize=12" parent="1" vertex="1">
          <mxGeometry x="170" y="240" width="160" height="30" as="geometry"/>
        </mxCell>
        <mxCell id="78961159f06e98e8-30" value="TopTrumpsRESTAPI" style="swimlane;html=1;fontStyle=1;align=center;verticalAlign=top;childLayout=stackLayout;horizontal=1;startSize=30;horizontalStack=0;resizeParent=1;resizeLast=0;collapsible=1;marginBottom=0;swimlaneFillColor=#ffffff;rounded=0;shadow=0;comic=0;labelBackgroundColor=none;strokeWidth=1;fillColor=none;fontFamily=Verdana;fontSize=12" parent="1" vertex="1">
          <mxGeometry x="170" y="10.000000000000007" width="160" height="29.57" as="geometry"/>
        </mxCell>
        <mxCell id="78961159f06e98e8-43" value="ModelAIPlayer" style="swimlane;html=1;fontStyle=1;align=center;verticalAlign=top;childLayout=stackLayout;horizontal=1;startSize=31;horizontalStack=0;resizeParent=1;resizeLast=0;collapsible=1;marginBottom=0;swimlaneFillColor=#ffffff;rounded=0;shadow=0;comic=0;labelBackgroundColor=none;strokeWidth=1;fillColor=none;fontFamily=Verdana;fontSize=12" parent="1" vertex="1">
          <mxGeometry x="660" y="180" width="160" height="30.5" as="geometry"/>
        </mxCell>
        <mxCell id="78961159f06e98e8-95" value="Game" style="swimlane;html=1;fontStyle=1;align=center;verticalAlign=top;childLayout=stackLayout;horizontal=1;startSize=30;horizontalStack=0;resizeParent=1;resizeLast=0;collapsible=1;marginBottom=0;swimlaneFillColor=#ffffff;rounded=0;shadow=0;comic=0;labelBackgroundColor=none;strokeWidth=1;fillColor=none;fontFamily=Verdana;fontSize=12" parent="1" vertex="1">
          <mxGeometry x="390" y="240" width="160" height="30" as="geometry"/>
        </mxCell>
        <mxCell id="78961159f06e98e8-108" value="ModelDeck" style="swimlane;html=1;fontStyle=1;align=center;verticalAlign=top;childLayout=stackLayout;horizontal=1;startSize=30;horizontalStack=0;resizeParent=1;resizeLast=0;collapsible=1;marginBottom=0;swimlaneFillColor=#ffffff;rounded=0;shadow=0;comic=0;labelBackgroundColor=none;strokeWidth=1;fillColor=none;fontFamily=Verdana;fontSize=12" parent="1" vertex="1">
          <mxGeometry x="430" y="350" width="160" height="30" as="geometry"/>
        </mxCell>
        <mxCell id="YVDnFWVNbik-R5A3QLN_-5" value="ModelCommunalPile" style="swimlane;html=1;fontStyle=1;align=center;verticalAlign=top;childLayout=stackLayout;horizontal=1;startSize=30;horizontalStack=0;resizeParent=1;resizeLast=0;collapsible=1;marginBottom=0;swimlaneFillColor=#ffffff;rounded=0;shadow=0;comic=0;labelBackgroundColor=none;strokeWidth=1;fillColor=none;fontFamily=Verdana;fontSize=12" parent="1" vertex="1">
          <mxGeometry x="430" y="430" width="160" height="30" as="geometry"/>
        </mxCell>
        <mxCell id="YVDnFWVNbik-R5A3QLN_-11" value="ModelDeckBuilder" style="swimlane;html=1;fontStyle=1;align=center;verticalAlign=top;childLayout=stackLayout;horizontal=1;startSize=30;horizontalStack=0;resizeParent=1;resizeLast=0;collapsible=1;marginBottom=0;swimlaneFillColor=#ffffff;rounded=0;shadow=0;comic=0;labelBackgroundColor=none;strokeWidth=1;fillColor=none;fontFamily=Verdana;fontSize=12" parent="1" vertex="1">
          <mxGeometry x="200" y="350" width="160" height="30" as="geometry"/>
        </mxCell>
        <mxCell id="YVDnFWVNbik-R5A3QLN_-17" value="ModelCard" style="swimlane;html=1;fontStyle=1;align=center;verticalAlign=top;childLayout=stackLayout;horizontal=1;startSize=31;horizontalStack=0;resizeParent=1;resizeLast=0;collapsible=1;marginBottom=0;swimlaneFillColor=#ffffff;rounded=0;shadow=0;comic=0;labelBackgroundColor=none;strokeWidth=1;fillColor=none;fontFamily=Verdana;fontSize=12" parent="1" vertex="1">
          <mxGeometry x="660" y="349.5" width="160" height="30.5" as="geometry"/>
        </mxCell>
        <mxCell id="YVDnFWVNbik-R5A3QLN_-23" value="ModelPlayer" style="swimlane;html=1;fontStyle=1;align=center;verticalAlign=top;childLayout=stackLayout;horizontal=1;startSize=32;horizontalStack=0;resizeParent=1;resizeLast=0;collapsible=1;marginBottom=0;swimlaneFillColor=#ffffff;rounded=0;shadow=0;comic=0;labelBackgroundColor=none;strokeWidth=1;fillColor=none;fontFamily=Verdana;fontSize=12" parent="1" vertex="1">
          <mxGeometry x="660" y="239.25" width="160" height="31.5" as="geometry"/>
        </mxCell>
        <mxCell id="YVDnFWVNbik-R5A3QLN_-32" value="&lt;font style=&quot;font-size: 27px&quot;&gt;Game Package&lt;/font&gt;" style="text;html=1;strokeColor=none;fillColor=none;align=center;verticalAlign=middle;whiteSpace=wrap;rounded=0;" parent="1" vertex="1">
          <mxGeometry x="70" y="350" width="130" height="108" as="geometry"/>
        </mxCell>
        <mxCell id="YVDnFWVNbik-R5A3QLN_-33" value="CommandLineController" style="swimlane;html=1;fontStyle=1;align=center;verticalAlign=top;childLayout=stackLayout;horizontal=1;startSize=30;horizontalStack=0;resizeParent=1;resizeLast=0;collapsible=1;marginBottom=0;swimlaneFillColor=#ffffff;rounded=0;shadow=0;comic=0;labelBackgroundColor=none;strokeWidth=1;fillColor=none;fontFamily=Verdana;fontSize=12" parent="1" vertex="1">
          <mxGeometry x="750" y="63.43000000000001" width="170" height="30.29" as="geometry"/>
        </mxCell>
        <mxCell id="YVDnFWVNbik-R5A3QLN_-56" value="Logger" style="swimlane;html=1;fontStyle=1;align=center;verticalAlign=top;childLayout=stackLayout;horizontal=1;startSize=30;horizontalStack=0;resizeParent=1;resizeLast=0;collapsible=1;marginBottom=0;swimlaneFillColor=#ffffff;rounded=0;shadow=0;comic=0;labelBackgroundColor=none;strokeWidth=1;fillColor=none;fontFamily=Verdana;fontSize=12" parent="1" vertex="1">
          <mxGeometry x="1000" y="62.71000000000001" width="160" height="30.29" as="geometry"/>
        </mxCell>
        <mxCell id="YVDnFWVNbik-R5A3QLN_-65" value="TopTrumpsCLI" style="swimlane;html=1;fontStyle=1;align=center;verticalAlign=top;childLayout=stackLayout;horizontal=1;startSize=28;horizontalStack=0;resizeParent=1;resizeLast=0;collapsible=1;marginBottom=0;swimlaneFillColor=#ffffff;rounded=0;shadow=0;comic=0;labelBackgroundColor=none;strokeWidth=1;fillColor=none;fontFamily=Verdana;fontSize=12" parent="1" vertex="1">
          <mxGeometry x="1000" y="-29" width="160" height="28" as="geometry"/>
        </mxCell>
        <mxCell id="YVDnFWVNbik-R5A3QLN_-82" style="edgeStyle=orthogonalEdgeStyle;rounded=0;orthogonalLoop=1;jettySize=auto;html=1;entryX=1;entryY=0.5;entryDx=0;entryDy=0;endArrow=block;endFill=1;strokeWidth=3;startArrow=none;startFill=0;exitX=0;exitY=0.5;exitDx=0;exitDy=0;" parent="1" source="78961159f06e98e8-95" target="78961159f06e98e8-17" edge="1">
          <mxGeometry relative="1" as="geometry">
            <mxPoint x="390" y="290" as="sourcePoint"/>
            <mxPoint x="330.0000000000002" y="277" as="targetPoint"/>
          </mxGeometry>
        </mxCell>
        <mxCell id="YVDnFWVNbik-R5A3QLN_-90" value="&lt;font style=&quot;font-size: 27px&quot;&gt;CommandLine Package&lt;/font&gt;" style="text;html=1;strokeColor=none;fillColor=none;align=center;verticalAlign=middle;whiteSpace=wrap;rounded=0;" parent="1" vertex="1">
          <mxGeometry x="870" y="-135.43" width="210" height="108" as="geometry"/>
        </mxCell>
        <mxCell id="YVDnFWVNbik-R5A3QLN_-95" value="SelectionScreenView" style="swimlane;html=1;fontStyle=1;align=center;verticalAlign=top;childLayout=stackLayout;horizontal=1;startSize=30;horizontalStack=0;resizeParent=1;resizeLast=0;collapsible=1;marginBottom=0;swimlaneFillColor=#ffffff;rounded=0;shadow=0;comic=0;labelBackgroundColor=none;strokeWidth=1;fillColor=none;fontFamily=Verdana;fontSize=12" parent="1" vertex="1">
          <mxGeometry x="-200" y="50" width="160" height="30" as="geometry"/>
        </mxCell>
        <mxCell id="YVDnFWVNbik-R5A3QLN_-107" value="TopTrumps" style="swimlane;html=1;fontStyle=1;align=center;verticalAlign=top;childLayout=stackLayout;horizontal=1;startSize=27;horizontalStack=0;resizeParent=1;resizeLast=0;collapsible=1;marginBottom=0;swimlaneFillColor=#ffffff;rounded=0;shadow=0;comic=0;labelBackgroundColor=none;strokeWidth=1;fillColor=none;fontFamily=Verdana;fontSize=12" parent="1" vertex="1">
          <mxGeometry x="660" y="-150" width="160" height="27.43" as="geometry"/>
        </mxCell>
        <mxCell id="YVDnFWVNbik-R5A3QLN_-123" value="StatisticsView" style="swimlane;html=1;fontStyle=1;align=center;verticalAlign=top;childLayout=stackLayout;horizontal=1;startSize=30;horizontalStack=0;resizeParent=1;resizeLast=0;collapsible=1;marginBottom=0;swimlaneFillColor=#ffffff;rounded=0;shadow=0;comic=0;labelBackgroundColor=none;strokeWidth=1;fillColor=none;fontFamily=Verdana;fontSize=12" parent="1" vertex="1">
          <mxGeometry x="-370" y="50" width="160" height="30" as="geometry"/>
        </mxCell>
        <mxCell id="YVDnFWVNbik-R5A3QLN_-129" value="GameWebPagesResource" style="swimlane;html=1;fontStyle=1;align=center;verticalAlign=top;childLayout=stackLayout;horizontal=1;startSize=26;horizontalStack=0;resizeParent=1;resizeLast=0;collapsible=1;marginBottom=0;swimlaneFillColor=#ffffff;rounded=0;shadow=0;comic=0;labelBackgroundColor=none;strokeWidth=1;fillColor=none;fontFamily=Verdana;fontSize=12" parent="1" vertex="1">
          <mxGeometry x="-100" y="-36" width="180" height="26" as="geometry"/>
        </mxCell>
        <mxCell id="YVDnFWVNbik-R5A3QLN_-141" value="StatsJSONGetter" style="swimlane;html=1;fontStyle=1;align=center;verticalAlign=top;childLayout=stackLayout;horizontal=1;startSize=30;horizontalStack=0;resizeParent=1;resizeLast=0;collapsible=1;marginBottom=0;swimlaneFillColor=#ffffff;rounded=0;shadow=0;comic=0;labelBackgroundColor=none;strokeWidth=1;fillColor=none;fontFamily=Verdana;fontSize=12" parent="1" vertex="1">
          <mxGeometry x="390" y="50" width="160" height="30" as="geometry"/>
        </mxCell>
        <mxCell id="YVDnFWVNbik-R5A3QLN_-147" value="JSONGetter" style="swimlane;html=1;fontStyle=1;align=center;verticalAlign=top;childLayout=stackLayout;horizontal=1;startSize=30;horizontalStack=0;resizeParent=1;resizeLast=0;collapsible=1;marginBottom=0;swimlaneFillColor=#ffffff;rounded=0;shadow=0;comic=0;labelBackgroundColor=none;strokeWidth=1;fillColor=none;fontFamily=Verdana;fontSize=12" parent="1" vertex="1">
          <mxGeometry x="390" y="93" width="160" height="30" as="geometry"/>
        </mxCell>
        <mxCell id="YVDnFWVNbik-R5A3QLN_-153" value="TopTrumpsJSONConfiguration" style="swimlane;html=1;fontStyle=1;align=center;verticalAlign=top;childLayout=stackLayout;horizontal=1;startSize=30;horizontalStack=0;resizeParent=1;resizeLast=0;collapsible=1;marginBottom=0;swimlaneFillColor=#ffffff;rounded=0;shadow=0;comic=0;labelBackgroundColor=none;strokeWidth=1;fillColor=none;fontFamily=Verdana;fontSize=12" parent="1" vertex="1">
          <mxGeometry x="470" y="-39.99999999999999" width="230" height="30" as="geometry"/>
        </mxCell>
        <mxCell id="YVDnFWVNbik-R5A3QLN_-159" value="&lt;font style=&quot;font-size: 27px&quot;&gt;Main&lt;/font&gt;" style="text;html=1;strokeColor=none;fillColor=none;align=center;verticalAlign=middle;whiteSpace=wrap;rounded=0;" parent="1" vertex="1">
          <mxGeometry x="635" y="-220" width="210" height="70" as="geometry"/>
        </mxCell>
        <mxCell id="YVDnFWVNbik-R5A3QLN_-161" value="&lt;font style=&quot;font-size: 27px&quot;&gt;Online Package&lt;/font&gt;" style="text;html=1;strokeColor=none;fillColor=none;align=center;verticalAlign=middle;whiteSpace=wrap;rounded=0;" parent="1" vertex="1">
          <mxGeometry x="-290" y="-150" width="210" height="70" as="geometry"/>
        </mxCell>
        <mxCell id="YVDnFWVNbik-R5A3QLN_-197" value="TopTrumpsOnlineApplication" style="swimlane;html=1;fontStyle=1;align=center;verticalAlign=top;childLayout=stackLayout;horizontal=1;startSize=30;horizontalStack=0;resizeParent=1;resizeLast=0;collapsible=1;marginBottom=0;swimlaneFillColor=#ffffff;rounded=0;shadow=0;comic=0;labelBackgroundColor=none;strokeWidth=1;fillColor=none;fontFamily=Verdana;fontSize=12" parent="1" vertex="1">
          <mxGeometry x="145" y="-110" width="210" height="30" as="geometry"/>
        </mxCell>
        <mxCell id="YVDnFWVNbik-R5A3QLN_-212" value="GameScreenView" style="swimlane;html=1;fontStyle=1;align=center;verticalAlign=top;childLayout=stackLayout;horizontal=1;startSize=30;horizontalStack=0;resizeParent=1;resizeLast=0;collapsible=1;marginBottom=0;swimlaneFillColor=#ffffff;rounded=0;shadow=0;comic=0;labelBackgroundColor=none;strokeWidth=1;fillColor=none;fontFamily=Verdana;fontSize=12" parent="1" vertex="1">
          <mxGeometry x="-30" y="49.99999999999999" width="160" height="30" as="geometry"/>
        </mxCell>
        <mxCell id="iblXKf1-hHa5-F32eaXx-6" value="Use" style="endArrow=open;endSize=12;dashed=1;html=1;strokeWidth=3;entryX=0.25;entryY=1;entryDx=0;entryDy=0;exitX=0.5;exitY=1;exitDx=0;exitDy=0;edgeStyle=orthogonalEdgeStyle;" parent="1" source="78961159f06e98e8-30" target="78961159f06e98e8-95" edge="1">
          <mxGeometry width="160" relative="1" as="geometry">
            <mxPoint x="260" y="-20" as="sourcePoint"/>
            <mxPoint x="260" y="250" as="targetPoint"/>
            <Array as="points">
              <mxPoint x="250" y="130"/>
              <mxPoint x="150" y="130"/>
              <mxPoint x="150" y="300"/>
              <mxPoint x="430" y="300"/>
            </Array>
          </mxGeometry>
        </mxCell>
        <mxCell id="iblXKf1-hHa5-F32eaXx-7" value="Use" style="endArrow=open;endSize=12;dashed=1;html=1;strokeWidth=3;entryX=0.813;entryY=0;entryDx=0;entryDy=0;exitX=0;exitY=0.5;exitDx=0;exitDy=0;entryPerimeter=0;edgeStyle=orthogonalEdgeStyle;" parent="1" source="YVDnFWVNbik-R5A3QLN_-141" target="78961159f06e98e8-17" edge="1">
          <mxGeometry width="160" relative="1" as="geometry">
            <mxPoint x="260" y="-20" as="sourcePoint"/>
            <mxPoint x="260" y="250" as="targetPoint"/>
            <Array as="points">
              <mxPoint x="330" y="65"/>
              <mxPoint x="330" y="190"/>
              <mxPoint x="300" y="190"/>
            </Array>
          </mxGeometry>
        </mxCell>
        <mxCell id="iblXKf1-hHa5-F32eaXx-8" value="Use" style="endArrow=open;endSize=12;dashed=1;html=1;strokeWidth=3;entryX=0;entryY=0.25;entryDx=0;entryDy=0;exitX=1;exitY=0.75;exitDx=0;exitDy=0;edgeStyle=orthogonalEdgeStyle;" parent="1" source="78961159f06e98e8-30" target="YVDnFWVNbik-R5A3QLN_-147" edge="1">
          <mxGeometry width="160" relative="1" as="geometry">
            <mxPoint x="400" y="44.3599999999999" as="sourcePoint"/>
            <mxPoint x="310.0799999999999" y="250" as="targetPoint"/>
          </mxGeometry>
        </mxCell>
        <mxCell id="iblXKf1-hHa5-F32eaXx-5" value="Use" style="endArrow=open;endSize=12;dashed=1;html=1;strokeWidth=3;entryX=0.5;entryY=0;entryDx=0;entryDy=0;exitX=0.75;exitY=1;exitDx=0;exitDy=0;edgeStyle=orthogonalEdgeStyle;" parent="1" source="78961159f06e98e8-30" target="78961159f06e98e8-17" edge="1">
          <mxGeometry width="160" relative="1" as="geometry">
            <mxPoint x="250" y="-30" as="sourcePoint"/>
            <mxPoint x="410" y="-30" as="targetPoint"/>
            <Array as="points">
              <mxPoint x="290" y="170"/>
              <mxPoint x="250" y="170"/>
            </Array>
          </mxGeometry>
        </mxCell>
        <mxCell id="iblXKf1-hHa5-F32eaXx-10" value="" style="endArrow=block;dashed=1;endFill=0;endSize=12;html=1;strokeWidth=3;exitX=0;exitY=0.5;exitDx=0;exitDy=0;entryX=0.75;entryY=0;entryDx=0;entryDy=0;edgeStyle=orthogonalEdgeStyle;" parent="1" source="YVDnFWVNbik-R5A3QLN_-153" target="78961159f06e98e8-30" edge="1">
          <mxGeometry width="160" relative="1" as="geometry">
            <mxPoint x="-30" y="510" as="sourcePoint"/>
            <mxPoint x="130" y="510" as="targetPoint"/>
            <Array as="points">
              <mxPoint x="290" y="-25"/>
            </Array>
          </mxGeometry>
        </mxCell>
        <mxCell id="iblXKf1-hHa5-F32eaXx-11" value="" style="endArrow=block;dashed=1;endFill=0;endSize=12;html=1;strokeWidth=3;exitX=0.5;exitY=1;exitDx=0;exitDy=0;entryX=1;entryY=0.5;entryDx=0;entryDy=0;edgeStyle=orthogonalEdgeStyle;" parent="1" source="YVDnFWVNbik-R5A3QLN_-153" target="YVDnFWVNbik-R5A3QLN_-141" edge="1">
          <mxGeometry width="160" relative="1" as="geometry">
            <mxPoint x="537.5" y="-17.430000000000064" as="sourcePoint"/>
            <mxPoint x="300" y="-17" as="targetPoint"/>
          </mxGeometry>
        </mxCell>
        <mxCell id="iblXKf1-hHa5-F32eaXx-12" value="" style="endArrow=block;dashed=1;endFill=0;endSize=12;html=1;strokeWidth=3;exitX=0.75;exitY=1;exitDx=0;exitDy=0;entryX=1;entryY=0.5;entryDx=0;entryDy=0;edgeStyle=orthogonalEdgeStyle;" parent="1" source="YVDnFWVNbik-R5A3QLN_-153" target="YVDnFWVNbik-R5A3QLN_-147" edge="1">
          <mxGeometry width="160" relative="1" as="geometry">
            <mxPoint x="595" y="12.569999999999936" as="sourcePoint"/>
            <mxPoint x="560" y="44.3599999999999" as="targetPoint"/>
            <Array as="points">
              <mxPoint x="643" y="108"/>
            </Array>
          </mxGeometry>
        </mxCell>
        <mxCell id="iblXKf1-hHa5-F32eaXx-13" value="Use" style="endArrow=open;endSize=12;dashed=1;html=1;strokeWidth=3;entryX=0.5;entryY=0;entryDx=0;entryDy=0;exitX=0.75;exitY=1;exitDx=0;exitDy=0;edgeStyle=orthogonalEdgeStyle;" parent="1" source="YVDnFWVNbik-R5A3QLN_-197" target="YVDnFWVNbik-R5A3QLN_-153" edge="1">
          <mxGeometry width="160" relative="1" as="geometry">
            <mxPoint x="340" y="5.177500000000009" as="sourcePoint"/>
            <mxPoint x="400" y="98.22000000000003" as="targetPoint"/>
            <Array as="points">
              <mxPoint x="303" y="-70"/>
              <mxPoint x="585" y="-70"/>
            </Array>
          </mxGeometry>
        </mxCell>
        <mxCell id="iblXKf1-hHa5-F32eaXx-14" value="Use" style="endArrow=open;endSize=12;dashed=1;html=1;strokeWidth=3;entryX=0.5;entryY=0;entryDx=0;entryDy=0;exitX=0.5;exitY=1;exitDx=0;exitDy=0;edgeStyle=orthogonalEdgeStyle;" parent="1" source="YVDnFWVNbik-R5A3QLN_-197" target="78961159f06e98e8-30" edge="1">
          <mxGeometry width="160" relative="1" as="geometry">
            <mxPoint x="300.00000000000045" y="12.569999999999936" as="sourcePoint"/>
            <mxPoint x="260" y="250" as="targetPoint"/>
          </mxGeometry>
        </mxCell>
        <mxCell id="iblXKf1-hHa5-F32eaXx-15" value="Use" style="endArrow=open;endSize=12;dashed=1;html=1;strokeWidth=3;entryX=0.5;entryY=0;entryDx=0;entryDy=0;exitX=0.224;exitY=1;exitDx=0;exitDy=0;edgeStyle=orthogonalEdgeStyle;exitPerimeter=0;" parent="1" source="YVDnFWVNbik-R5A3QLN_-197" target="YVDnFWVNbik-R5A3QLN_-129" edge="1">
          <mxGeometry width="160" relative="1" as="geometry">
            <mxPoint x="312.5" y="-90" as="sourcePoint"/>
            <mxPoint x="595" y="-17.430000000000064" as="targetPoint"/>
            <Array as="points">
              <mxPoint x="192" y="-70"/>
              <mxPoint x="-10" y="-70"/>
            </Array>
          </mxGeometry>
        </mxCell>
        <mxCell id="iblXKf1-hHa5-F32eaXx-17" value="Use" style="endArrow=open;endSize=12;dashed=1;html=1;strokeWidth=3;entryX=0.25;entryY=0;entryDx=0;entryDy=0;exitX=1;exitY=0.25;exitDx=0;exitDy=0;edgeStyle=orthogonalEdgeStyle;" parent="1" source="78961159f06e98e8-30" target="YVDnFWVNbik-R5A3QLN_-141" edge="1">
          <mxGeometry width="160" relative="1" as="geometry">
            <mxPoint x="340" y="5.177500000000009" as="sourcePoint"/>
            <mxPoint x="400" y="98.22000000000003" as="targetPoint"/>
          </mxGeometry>
        </mxCell>
        <mxCell id="iblXKf1-hHa5-F32eaXx-18" value="Use" style="endArrow=open;endSize=12;dashed=1;html=1;strokeWidth=3;entryX=0.5;entryY=0;entryDx=0;entryDy=0;exitX=0.5;exitY=1;exitDx=0;exitDy=0;edgeStyle=orthogonalEdgeStyle;" parent="1" source="YVDnFWVNbik-R5A3QLN_-147" target="78961159f06e98e8-95" edge="1">
          <mxGeometry width="160" relative="1" as="geometry">
            <mxPoint x="260" y="-90" as="sourcePoint"/>
            <mxPoint x="260" y="-17" as="targetPoint"/>
          </mxGeometry>
        </mxCell>
        <mxCell id="iblXKf1-hHa5-F32eaXx-19" value="Extends" style="endArrow=block;endSize=16;endFill=0;html=1;dashed=1;strokeWidth=3;entryX=0.5;entryY=0;entryDx=0;entryDy=0;exitX=0.5;exitY=1;exitDx=0;exitDy=0;" parent="1" source="78961159f06e98e8-43" target="YVDnFWVNbik-R5A3QLN_-23" edge="1">
          <mxGeometry width="160" relative="1" as="geometry">
            <mxPoint x="170" y="510" as="sourcePoint"/>
            <mxPoint x="330" y="510" as="targetPoint"/>
          </mxGeometry>
        </mxCell>
        <mxCell id="iblXKf1-hHa5-F32eaXx-21" value="Use" style="endArrow=open;endSize=12;dashed=1;html=1;strokeWidth=3;entryX=0.25;entryY=0;entryDx=0;entryDy=0;edgeStyle=orthogonalEdgeStyle;" parent="1" target="78961159f06e98e8-108" edge="1">
          <mxGeometry width="160" relative="1" as="geometry">
            <mxPoint x="470" y="270" as="sourcePoint"/>
            <mxPoint x="480" y="250" as="targetPoint"/>
          </mxGeometry>
        </mxCell>
        <mxCell id="iblXKf1-hHa5-F32eaXx-22" value="" style="endArrow=block;dashed=1;endFill=0;endSize=12;html=1;strokeWidth=3;exitX=0.5;exitY=1;exitDx=0;exitDy=0;entryX=0.75;entryY=0;entryDx=0;entryDy=0;edgeStyle=orthogonalEdgeStyle;" parent="1" source="YVDnFWVNbik-R5A3QLN_-33" target="78961159f06e98e8-95" edge="1">
          <mxGeometry width="160" relative="1" as="geometry">
            <mxPoint x="652.5" y="12.569999999999936" as="sourcePoint"/>
            <mxPoint x="560" y="105.72000000000003" as="targetPoint"/>
            <Array as="points">
              <mxPoint x="835" y="160"/>
              <mxPoint x="510" y="160"/>
            </Array>
          </mxGeometry>
        </mxCell>
        <mxCell id="iblXKf1-hHa5-F32eaXx-23" value="Use" style="endArrow=open;endSize=12;dashed=1;html=1;strokeWidth=3;entryX=0.5;entryY=0;entryDx=0;entryDy=0;exitX=0;exitY=0.5;exitDx=0;exitDy=0;edgeStyle=orthogonalEdgeStyle;" parent="1" source="YVDnFWVNbik-R5A3QLN_-65" target="YVDnFWVNbik-R5A3QLN_-33" edge="1">
          <mxGeometry width="160" relative="1" as="geometry">
            <mxPoint x="760" y="-16.48750000000007" as="sourcePoint"/>
            <mxPoint x="860" y="22.4799999999999" as="targetPoint"/>
          </mxGeometry>
        </mxCell>
        <mxCell id="iblXKf1-hHa5-F32eaXx-24" value="Use" style="endArrow=open;endSize=12;dashed=1;html=1;strokeWidth=3;exitX=0.5;exitY=1;exitDx=0;exitDy=0;edgeStyle=orthogonalEdgeStyle;entryX=0.5;entryY=0;entryDx=0;entryDy=0;" parent="1" source="YVDnFWVNbik-R5A3QLN_-65" target="YVDnFWVNbik-R5A3QLN_-56" edge="1">
          <mxGeometry width="160" relative="1" as="geometry">
            <mxPoint x="990" y="-5" as="sourcePoint"/>
            <mxPoint x="1059" y="70" as="targetPoint"/>
          </mxGeometry>
        </mxCell>
        <mxCell id="iblXKf1-hHa5-F32eaXx-25" value="Use" style="endArrow=open;endSize=12;dashed=1;html=1;strokeWidth=3;exitX=1;exitY=0.5;exitDx=0;exitDy=0;edgeStyle=orthogonalEdgeStyle;entryX=1;entryY=1;entryDx=0;entryDy=0;" parent="1" source="YVDnFWVNbik-R5A3QLN_-107" target="YVDnFWVNbik-R5A3QLN_-90" edge="1">
          <mxGeometry width="160" relative="1" as="geometry">
            <mxPoint x="1090" y="-100" as="sourcePoint"/>
            <mxPoint x="1090" y="-36.289999999999964" as="targetPoint"/>
            <Array as="points">
              <mxPoint x="1080" y="-136"/>
            </Array>
          </mxGeometry>
        </mxCell>
        <mxCell id="iblXKf1-hHa5-F32eaXx-26" value="1" style="endArrow=open;html=1;endSize=12;startArrow=diamondThin;startSize=14;startFill=1;edgeStyle=orthogonalEdgeStyle;align=left;verticalAlign=bottom;dashed=1;strokeWidth=3;exitX=1;exitY=0.5;exitDx=0;exitDy=0;entryX=0.5;entryY=1;entryDx=0;entryDy=0;" parent="1" source="YVDnFWVNbik-R5A3QLN_-5" target="YVDnFWVNbik-R5A3QLN_-17" edge="1">
          <mxGeometry x="-1" y="3" relative="1" as="geometry">
            <mxPoint x="610" y="444.5" as="sourcePoint"/>
            <mxPoint x="770" y="444.5" as="targetPoint"/>
          </mxGeometry>
        </mxCell>
        <mxCell id="iblXKf1-hHa5-F32eaXx-28" value="Use" style="endArrow=open;endSize=12;dashed=1;html=1;strokeWidth=3;entryX=0.5;entryY=0;entryDx=0;entryDy=0;edgeStyle=orthogonalEdgeStyle;exitX=0.5;exitY=1;exitDx=0;exitDy=0;" parent="1" source="YVDnFWVNbik-R5A3QLN_-23" target="YVDnFWVNbik-R5A3QLN_-17" edge="1">
          <mxGeometry width="160" relative="1" as="geometry">
            <mxPoint x="480" y="280" as="sourcePoint"/>
            <mxPoint x="480" y="360" as="targetPoint"/>
          </mxGeometry>
        </mxCell>
        <mxCell id="iblXKf1-hHa5-F32eaXx-29" value="Use" style="endArrow=open;endSize=12;dashed=1;html=1;strokeWidth=3;entryX=0.5;entryY=0;entryDx=0;entryDy=0;edgeStyle=orthogonalEdgeStyle;" parent="1" target="YVDnFWVNbik-R5A3QLN_-5" edge="1">
          <mxGeometry width="160" relative="1" as="geometry">
            <mxPoint x="510" y="380" as="sourcePoint"/>
            <mxPoint x="480" y="360" as="targetPoint"/>
          </mxGeometry>
        </mxCell>
        <mxCell id="iblXKf1-hHa5-F32eaXx-30" value="Use" style="endArrow=open;endSize=12;dashed=1;html=1;strokeWidth=3;entryX=0.75;entryY=0;entryDx=0;entryDy=0;edgeStyle=orthogonalEdgeStyle;exitX=0;exitY=0.25;exitDx=0;exitDy=0;" parent="1" source="78961159f06e98e8-30" target="YVDnFWVNbik-R5A3QLN_-212" edge="1">
          <mxGeometry width="160" relative="1" as="geometry">
            <mxPoint x="260" y="-90" as="sourcePoint"/>
            <mxPoint x="260" y="-17" as="targetPoint"/>
          </mxGeometry>
        </mxCell>
        <mxCell id="iblXKf1-hHa5-F32eaXx-31" value="Use" style="endArrow=open;endSize=12;dashed=1;html=1;strokeWidth=3;entryX=0;entryY=0.5;entryDx=0;entryDy=0;exitX=1;exitY=0.5;exitDx=0;exitDy=0;edgeStyle=orthogonalEdgeStyle;" parent="1" source="YVDnFWVNbik-R5A3QLN_-11" target="78961159f06e98e8-108" edge="1">
          <mxGeometry width="160" relative="1" as="geometry">
            <mxPoint x="520" y="390" as="sourcePoint"/>
            <mxPoint x="520" y="440" as="targetPoint"/>
          </mxGeometry>
        </mxCell>
        <mxCell id="iblXKf1-hHa5-F32eaXx-32" value="" style="endArrow=block;dashed=1;endFill=0;endSize=12;html=1;strokeWidth=3;exitX=0.25;exitY=1;exitDx=0;exitDy=0;entryX=0.5;entryY=0;entryDx=0;entryDy=0;edgeStyle=orthogonalEdgeStyle;" parent="1" source="YVDnFWVNbik-R5A3QLN_-129" target="YVDnFWVNbik-R5A3QLN_-95" edge="1">
          <mxGeometry width="160" relative="1" as="geometry">
            <mxPoint x="30" y="143.28999999999994" as="sourcePoint"/>
            <mxPoint x="-207.5" y="143.72" as="targetPoint"/>
            <Array as="points">
              <mxPoint x="-55"/>
              <mxPoint x="-120"/>
            </Array>
          </mxGeometry>
        </mxCell>
        <mxCell id="iblXKf1-hHa5-F32eaXx-33" value="" style="endArrow=block;dashed=1;endFill=0;endSize=12;html=1;strokeWidth=3;edgeStyle=orthogonalEdgeStyle;exitX=0.75;exitY=1;exitDx=0;exitDy=0;" parent="1" source="YVDnFWVNbik-R5A3QLN_-129" target="YVDnFWVNbik-R5A3QLN_-212" edge="1">
          <mxGeometry width="160" relative="1" as="geometry">
            <mxPoint x="30" y="-40" as="sourcePoint"/>
            <mxPoint x="-120" y="41.99000000000001" as="targetPoint"/>
            <Array as="points">
              <mxPoint x="35"/>
              <mxPoint x="50"/>
            </Array>
          </mxGeometry>
        </mxCell>
        <mxCell id="iblXKf1-hHa5-F32eaXx-35" value="" style="endArrow=block;dashed=1;endFill=0;endSize=12;html=1;strokeWidth=3;edgeStyle=orthogonalEdgeStyle;exitX=0;exitY=0.5;exitDx=0;exitDy=0;entryX=0.5;entryY=0;entryDx=0;entryDy=0;" parent="1" source="YVDnFWVNbik-R5A3QLN_-129" target="YVDnFWVNbik-R5A3QLN_-123" edge="1">
          <mxGeometry width="160" relative="1" as="geometry">
            <mxPoint x="35" y="-34" as="sourcePoint"/>
            <mxPoint x="50" y="42.710000000000036" as="targetPoint"/>
            <Array as="points">
              <mxPoint x="-290" y="-23"/>
            </Array>
          </mxGeometry>
        </mxCell>
        <mxCell id="iblXKf1-hHa5-F32eaXx-37" value="Use" style="endArrow=open;endSize=12;dashed=1;html=1;strokeWidth=3;entryX=0.5;entryY=1;entryDx=0;entryDy=0;edgeStyle=orthogonalEdgeStyle;exitX=0;exitY=0.5;exitDx=0;exitDy=0;" parent="1" source="78961159f06e98e8-30" target="YVDnFWVNbik-R5A3QLN_-95" edge="1">
          <mxGeometry width="160" relative="1" as="geometry">
            <mxPoint x="130" y="81.37000000000003" as="sourcePoint"/>
            <mxPoint x="180" y="14.052500000000155" as="targetPoint"/>
            <Array as="points">
              <mxPoint x="140" y="25"/>
              <mxPoint x="140" y="100"/>
              <mxPoint x="-120" y="100"/>
            </Array>
          </mxGeometry>
        </mxCell>
        <mxCell id="iblXKf1-hHa5-F32eaXx-38" value="Use" style="endArrow=open;endSize=12;dashed=1;html=1;strokeWidth=3;entryX=0.5;entryY=1;entryDx=0;entryDy=0;edgeStyle=orthogonalEdgeStyle;exitX=0;exitY=0.75;exitDx=0;exitDy=0;" parent="1" source="78961159f06e98e8-30" target="YVDnFWVNbik-R5A3QLN_-123" edge="1">
          <mxGeometry width="160" relative="1" as="geometry">
            <mxPoint x="-130" y="93.56" as="sourcePoint"/>
            <mxPoint x="170" y="19.355000000000082" as="targetPoint"/>
            <Array as="points">
              <mxPoint x="150" y="32"/>
              <mxPoint x="150" y="110"/>
              <mxPoint x="-290" y="110"/>
            </Array>
          </mxGeometry>
        </mxCell>
        <mxCell id="iblXKf1-hHa5-F32eaXx-39" value="Use" style="endArrow=open;endSize=12;dashed=1;html=1;strokeWidth=3;entryX=0;entryY=0.25;entryDx=0;entryDy=0;exitX=0.25;exitY=1;exitDx=0;exitDy=0;edgeStyle=orthogonalEdgeStyle;" parent="1" source="78961159f06e98e8-30" target="78961159f06e98e8-108" edge="1">
          <mxGeometry width="160" relative="1" as="geometry">
            <mxPoint x="260" y="12.569999999999936" as="sourcePoint"/>
            <mxPoint x="440" y="280" as="targetPoint"/>
            <Array as="points">
              <mxPoint x="210" y="120"/>
              <mxPoint x="130" y="120"/>
              <mxPoint x="130" y="330"/>
              <mxPoint x="390" y="330"/>
              <mxPoint x="390" y="358"/>
            </Array>
          </mxGeometry>
        </mxCell>
        <mxCell id="iblXKf1-hHa5-F32eaXx-40" value="Use" style="endArrow=open;endSize=12;dashed=1;html=1;strokeWidth=3;entryX=0.25;entryY=0;entryDx=0;entryDy=0;edgeStyle=orthogonalEdgeStyle;exitX=0.75;exitY=1;exitDx=0;exitDy=0;" parent="1" source="78961159f06e98e8-95" target="YVDnFWVNbik-R5A3QLN_-17" edge="1">
          <mxGeometry width="160" relative="1" as="geometry">
            <mxPoint x="480" y="280" as="sourcePoint"/>
            <mxPoint x="480" y="360" as="targetPoint"/>
          </mxGeometry>
        </mxCell>
        <mxCell id="iblXKf1-hHa5-F32eaXx-41" value="Use" style="endArrow=open;endSize=12;dashed=1;html=1;strokeWidth=3;entryX=0;entryY=0.5;entryDx=0;entryDy=0;edgeStyle=orthogonalEdgeStyle;exitX=1;exitY=0.5;exitDx=0;exitDy=0;" parent="1" source="78961159f06e98e8-95" target="YVDnFWVNbik-R5A3QLN_-23" edge="1">
          <mxGeometry width="160" relative="1" as="geometry">
            <mxPoint x="480" y="280" as="sourcePoint"/>
            <mxPoint x="480" y="360" as="targetPoint"/>
          </mxGeometry>
        </mxCell>
        <mxCell id="iblXKf1-hHa5-F32eaXx-42" value="1" style="endArrow=open;html=1;endSize=12;startArrow=diamondThin;startSize=14;startFill=1;edgeStyle=orthogonalEdgeStyle;align=left;verticalAlign=bottom;dashed=1;strokeWidth=3;entryX=0;entryY=0.5;entryDx=0;entryDy=0;exitX=1;exitY=0.5;exitDx=0;exitDy=0;" parent="1" source="78961159f06e98e8-108" target="YVDnFWVNbik-R5A3QLN_-17" edge="1">
          <mxGeometry x="-1" y="3" relative="1" as="geometry">
            <mxPoint x="20" y="510" as="sourcePoint"/>
            <mxPoint x="180" y="510" as="targetPoint"/>
          </mxGeometry>
        </mxCell>
        <mxCell id="iblXKf1-hHa5-F32eaXx-43" value="Use" style="endArrow=open;endSize=12;dashed=1;html=1;strokeWidth=3;exitX=0;exitY=0.5;exitDx=0;exitDy=0;edgeStyle=orthogonalEdgeStyle;entryX=0.5;entryY=0;entryDx=0;entryDy=0;" parent="1" source="YVDnFWVNbik-R5A3QLN_-107" target="YVDnFWVNbik-R5A3QLN_-197" edge="1">
          <mxGeometry width="160" relative="1" as="geometry">
            <mxPoint x="830" y="-106.28499999999985" as="sourcePoint"/>
            <mxPoint x="1090" y="-17.43000000000029" as="targetPoint"/>
          </mxGeometry>
        </mxCell>
      </root>
    </mxGraphModel>
  </diagram>
</mxfile>
